<svg version="1.1" id="Layer_1" xmlns="http://www.w3.org/2000/svg" xmlns:xlink="http://www.w3.org/1999/xlink" x="0px" fill="#FFFF" y="0px"
	 width="100%" viewBox="0 0 129 133" enable-background="new 0 0 129 133" xml:space="preserve">
<path fill="#FF0054" opacity="1.000000" stroke="none" 
	d="
M55.000000,1.000000 
	C61.687645,1.000000 68.375290,1.000000 75.716476,1.350031 
	C93.884903,4.172833 107.362923,13.255570 118.021202,27.029932 
	C124.229256,35.052994 127.188736,44.485676 130.000000,54.000000 
	C130.000000,61.354252 130.000000,68.708504 129.653168,76.714249 
	C127.420456,88.080933 123.376434,97.801132 115.714569,106.020798 
	C114.283058,106.429688 113.157951,106.721260 112.185669,107.279167 
	C96.704842,116.162163 79.998375,119.803284 62.488346,116.761139 
	C34.858902,111.960876 15.143313,96.497597 3.944988,70.524948 
	C3.363916,69.177254 1.999643,68.167229 1.000000,67.000000 
	C1.000000,63.638714 1.000000,60.277424 1.352411,56.267525 
	C4.444573,47.857166 6.297396,39.623482 10.120676,32.438286 
	C16.755415,19.969437 27.055708,10.932508 40.451462,5.861256 
	C45.229626,4.052376 50.146461,2.609786 55.000000,1.000000 
M79.025230,50.213825 
	C76.104103,50.213825 73.182976,50.213825 69.391747,50.213825 
	C69.878265,55.597969 70.309029,60.365128 70.814438,65.958359 
	C84.938423,61.559750 97.822365,57.586338 110.654396,53.451820 
	C111.405167,53.209911 111.736404,51.665909 112.585312,50.153355 
	C108.473007,50.153355 105.351219,50.153355 101.291008,49.996643 
	C94.145248,49.120201 87.069778,52.296177 79.025230,50.213825 
M27.332716,49.632919 
	C18.673229,49.428860 18.673229,49.428860 18.364189,54.061863 
	C31.699308,57.958729 45.093571,61.872875 58.393101,65.759338 
	C64.078400,53.921284 61.728947,49.538219 49.703365,50.062664 
	C42.489799,50.008823 35.276237,49.954979 27.332716,49.632919 
M63.558079,84.019150 
	C61.139244,83.689819 58.720409,83.360497 56.301575,83.031166 
	C56.152462,83.536140 56.003349,84.041107 55.854240,84.546082 
	C61.057381,89.022789 65.621109,95.245506 73.713020,93.862259 
	C79.711243,92.836914 83.668327,88.328583 86.783836,83.319313 
	C78.979248,83.605171 71.698120,83.871849 63.558079,84.019150 
M36.089844,29.364391 
	C31.740057,31.662563 27.527588,34.092094 26.140223,38.826206 
	C31.718779,36.542812 37.113575,33.166115 42.884144,32.303677 
	C48.572105,31.453585 54.640610,33.149727 60.955242,33.769253 
	C56.268200,26.736744 47.057369,25.129295 36.089844,29.364391 
M99.411819,38.918583 
	C100.342148,37.625126 101.272476,36.331669 102.356339,34.824738 
	C91.815941,36.314617 82.094353,37.688755 72.426712,39.055271 
	C78.179718,45.221302 88.060112,45.355473 99.411819,38.918583 
z"/>
<path fill="#E30048" opacity="1.000000" stroke="none" 
	d="
M1.000000,67.444168 
	C1.999643,68.167229 3.363916,69.177254 3.944988,70.524948 
	C15.143313,96.497597 34.858902,111.960876 62.488346,116.761139 
	C79.998375,119.803284 96.704842,116.162163 112.185669,107.279167 
	C113.157951,106.721260 114.283058,106.429688 115.572052,106.330429 
	C110.302429,111.499245 105.015686,116.635620 99.208427,121.093987 
	C95.924057,123.615479 91.784462,125.022995 87.625679,126.969421 
	C72.368698,131.138641 57.590714,131.491684 42.556725,126.068260 
	C25.391035,119.549194 13.486695,107.892708 6.321521,91.528198 
	C4.011945,86.253372 2.744296,80.522339 1.000001,75.000000 
	C1.000000,72.629440 1.000000,70.258888 1.000000,67.444168 
z"/>
<path fill="#47704C" opacity="1.000000" stroke="none" 
	d="
M1.000001,75.468658 
	C2.744296,80.522339 4.011945,86.253372 6.321521,91.528198 
	C13.486695,107.892708 25.391035,119.549194 42.366146,126.350174 
	C40.686867,127.652863 38.829395,128.609695 35.777069,130.182053 
	C38.558849,131.122253 39.866966,131.714844 41.238964,131.998810 
	C44.811020,132.738144 48.411098,133.342056 52.000000,134.000000 
	C35.067894,134.000000 18.135788,134.000000 1.000000,134.000000 
	C1.000000,114.646248 1.000000,95.291786 1.000001,75.468658 
z"/>
<path fill="#47704C" opacity="1.000000" stroke="none" 
	d="
M88.030075,126.932266 
	C91.784462,125.022995 95.924057,123.615479 99.208427,121.093987 
	C105.015686,116.635620 110.302429,111.499245 115.949539,106.337013 
	C123.376434,97.801132 127.420456,88.080933 129.653168,77.182861 
	C130.000000,95.921982 130.000000,114.843964 130.000000,134.000000 
	C113.646515,134.000000 97.291916,134.000000 80.720276,133.676056 
	C85.298119,132.647293 90.093002,131.942490 94.887886,131.237671 
	C94.924774,130.479279 94.961662,129.720886 94.998543,128.962494 
	C92.675720,128.285751 90.352898,127.609001 88.030075,126.932266 
z"/>
<path fill="#47704C" opacity="1.000000" stroke="none" 
	d="
M54.531342,1.000000 
	C50.146461,2.609786 45.229626,4.052376 40.451462,5.861256 
	C27.055708,10.932508 16.755415,19.969437 10.120676,32.438286 
	C6.297396,39.623482 4.444573,47.857166 1.352411,55.809456 
	C1.000000,37.740559 1.000000,19.481115 1.000000,1.000000 
	C18.686943,1.000000 36.374813,1.000000 54.531342,1.000000 
z"/>
<path fill="#47704C" opacity="1.000000" stroke="none" 
	d="
M130.000000,53.531342 
	C127.188736,44.485676 124.229256,35.052994 118.021202,27.029932 
	C107.362923,13.255570 93.884903,4.172833 76.185013,1.350031 
	C93.926094,1.000000 111.852180,1.000000 130.000000,1.000000 
	C130.000000,18.353598 130.000000,35.708141 130.000000,53.531342 
z"/>
<path fill="#760C14" opacity="1.000000" stroke="none" 
	d="
M87.625679,126.969414 
	C90.352898,127.609001 92.675720,128.285751 94.998543,128.962494 
	C94.961662,129.720886 94.924774,130.479279 94.887886,131.237671 
	C90.093002,131.942490 85.298119,132.647293 80.251617,133.676056 
	C70.979103,134.000000 61.958210,134.000000 52.468658,134.000000 
	C48.411098,133.342056 44.811020,132.738144 41.238964,131.998810 
	C39.866966,131.714844 38.558849,131.122253 35.777069,130.182053 
	C38.829395,128.609695 40.686867,127.652863 42.734917,126.414108 
	C57.590714,131.491684 72.368698,131.138641 87.625679,126.969414 
z"/>
<path fill="#FCF7F9" opacity="1.000000" stroke="none" 
	d="
M50.566532,50.158688 
	C61.728947,49.538219 64.078400,53.921284 58.393101,65.759338 
	C45.093571,61.872875 31.699308,57.958729 18.364189,54.061863 
	C18.673229,49.428860 18.673229,49.428860 27.765934,50.108360 
	C35.416573,59.635147 45.044506,59.452160 50.566532,50.158688 
z"/>
<path fill="#FDF5F8" opacity="1.000000" stroke="none" 
	d="
M102.229439,50.153355 
	C105.351219,50.153355 108.473007,50.153355 112.585312,50.153355 
	C111.736404,51.665909 111.405167,53.209911 110.654396,53.451820 
	C97.822365,57.586338 84.938423,61.559750 70.814438,65.958359 
	C70.309029,60.365128 69.878265,55.597969 69.391747,50.213825 
	C73.182976,50.213825 76.104103,50.213825 79.573349,50.595787 
	C86.726067,59.706520 96.621513,59.337524 102.229439,50.153355 
z"/>
<path fill="#6F0420" opacity="1.000000" stroke="none" 
	d="
M63.987534,84.078842 
	C71.698120,83.871849 78.979248,83.605171 86.783836,83.319313 
	C83.668327,88.328583 79.711243,92.836914 73.713020,93.862259 
	C65.621109,95.245506 61.057381,89.022789 55.854240,84.546082 
	C56.003349,84.041107 56.152462,83.536140 56.301575,83.031166 
	C58.720409,83.360497 61.139244,83.689819 63.987534,84.078842 
z"/>
<path fill="#760523" opacity="1.000000" stroke="none" 
	d="
M36.441792,29.206465 
	C47.057369,25.129295 56.268200,26.736744 60.955242,33.769253 
	C54.640610,33.149727 48.572105,31.453585 42.884144,32.303677 
	C37.113575,33.166115 31.718779,36.542812 26.140223,38.826206 
	C27.527588,34.092094 31.740057,31.662563 36.441792,29.206465 
z"/>
<path fill="#760523" opacity="1.000000" stroke="none" 
	d="
M99.109047,39.137554 
	C88.060112,45.355473 78.179718,45.221302 72.426712,39.055271 
	C82.094353,37.688755 91.815941,36.314617 102.356339,34.824738 
	C101.272476,36.331669 100.342148,37.625126 99.109047,39.137554 
z"/>
<path fill="#121011" opacity="1.000000" stroke="none" 
	d="
M101.760223,50.074997 
	C96.621513,59.337524 86.726067,59.706520 80.013611,50.672672 
	C87.069778,52.296177 94.145248,49.120201 101.760223,50.074997 
z"/>
<path fill="#050505" opacity="1.000000" stroke="none" 
	d="
M50.134949,50.110676 
	C45.044506,59.452160 35.416573,59.635147 28.130911,50.242470 
	C35.276237,49.954979 42.489799,50.008823 50.134949,50.110676 
z"/>
</svg>